# xmcd
#
# Track frame offsets:
#	150
#	25575
#	39742
#	45439
#	55457
#	70072
#	82170
#	98667
#	112422
#	134177
#	148830
#	163740
#	179209
#	191217
#	201040
#	215532
#	229084
#	240595
#	254822
#	268695
#	280492
#	292255
#	308372
#
# Disc length: 4548 seconds
# Revision: 0
# Processed by: cddbd v1.5.2PL0 Copyright (c) Steve Scherf et al.
# Submitted via: dBpowerAMP V12.0
#
DISCID=7a11c217
DTITLE=The Seldom Scene - Live at the Cellar Door
DYEAR=1992
DGENRE=Country
TTITLE0=Doing My Time
TTITLE1=California Cottonfields
TTITLE2=Band Intros
TTITLE3=Panhandle Country
TTITLE4=Muddy Waters
TTITLE5=Rawhide
TTITLE6=Baby Blue
TTITLE7=City of New Orleans
TTITLE8=Grandfather's Clock
TTITLE9=The Fields Have Turned Brown
TTITLE10=Hit Parade of Love
TTITLE11=Will the Circle Be Unbroken
TTITLE12=Pick Away
TTITLE13=Dark Hollow
TTITLE14=Small Exception of Me
TTITLE15=If I Were a Carpenter
TTITLE16=Old Gray Bonnet
TTITLE17=C and O Canal
TTITLE18=Georgia Rose
TTITLE19=Colorado Turnaround
TTITLE20=He Rode All the Way to Texas
TTITLE21=White Line
TTITLE22=Rider
EXTD=
EXTT0=
EXTT1=
EXTT2=
EXTT3=
EXTT4=
EXTT5=
EXTT6=
EXTT7=
EXTT8=
EXTT9=
EXTT10=
EXTT11=
EXTT12=
EXTT13=
EXTT14=
EXTT15=
EXTT16=
EXTT17=
EXTT18=
EXTT19=
EXTT20=
EXTT21=
EXTT22=
PLAYORDER=
